<?xml version="1.0" encoding="UTF-8" standalone="no"?>
<svg
   xmlns:dc="http://purl.org/dc/elements/1.1/"
   xmlns:cc="http://creativecommons.org/ns#"
   xmlns:rdf="http://www.w3.org/1999/02/22-rdf-syntax-ns#"
   xmlns:svg="http://www.w3.org/2000/svg"
   xmlns="http://www.w3.org/2000/svg"
   xmlns:sodipodi="http://sodipodi.sourceforge.net/DTD/sodipodi-0.dtd"
   xmlns:inkscape="http://www.inkscape.org/namespaces/inkscape"
   inkscape:version="1.0beta2 (998e94e, 2020-02-11)"
   sodipodi:docname="drober logo.svg"
   id="svg58"
   version="1.1"
   viewBox="0 0 322.573 448.19"
   height="448.19"
   width="322.573">
  <metadata
     id="metadata62">
    <rdf:RDF>
      <cc:Work
         rdf:about="">
        <dc:format>image/svg+xml</dc:format>
        <dc:type
           rdf:resource="http://purl.org/dc/dcmitype/StillImage" />
      </cc:Work>
    </rdf:RDF>
  </metadata>
  <sodipodi:namedview
     inkscape:current-layer="svg58"
     inkscape:window-maximized="1"
     inkscape:window-y="-9"
     inkscape:window-x="71"
     inkscape:cy="164.11408"
     inkscape:cx="93.291376"
     inkscape:zoom="1.9105877"
     showgrid="false"
     id="namedview60"
     inkscape:window-height="1411"
     inkscape:window-width="2480"
     inkscape:pageshadow="2"
     inkscape:pageopacity="0"
     guidetolerance="10"
     gridtolerance="10"
     objecttolerance="10"
     borderopacity="1"
     bordercolor="#666666"
     pagecolor="#ffffff" />
  <defs
     id="defs53">
    <linearGradient
       gradientUnits="objectBoundingBox"
       y2="1"
       x2="0.5"
       x1="0.5"
       id="linear-gradient">
      <stop
         id="stop37"
         stop-color="#83a6cd"
         offset="0" />
      <stop
         id="stop39"
         stop-color="#5b6ec0"
         offset="1" />
    </linearGradient>
    <filter
       filterUnits="userSpaceOnUse"
       height="448.19"
       width="322.573"
       y="0"
       x="0"
       id="drober_logo">
      <feOffset
         id="feOffset42"
         input="SourceAlpha"
         dy="10"
         dx="-10" />
      <feGaussianBlur
         id="feGaussianBlur44"
         result="blur"
         stdDeviation="3" />
      <feFlood
         id="feFlood46"
         flood-opacity="0.161" />
      <feComposite
         result="result1"
         id="feComposite48"
         in2="blur"
         operator="in" />
      <feComposite
         id="feComposite50"
         in2="result1"
         in="SourceGraphic" />
    </filter>
  </defs>
  <g
     id="g56"
     filter="url(#drober_logo)"
     transform="matrix(1, 0, 0, 1, 0, 0)">
    <path
       sodipodi:nodetypes="cccccccccccccccccccsccccssccsssscccccccscccscccccssscccccccccccccccccccccccc"
       inkscape:connector-curvature="0"
       fill="url(#linear-gradient)"
       transform="translate(-257.12,-238.85)"
       d="m 357.078,519.488 c -6.552,6.276 -9.18,6.111 -9.928,12.094 -1.516,11.992 7.581,27.438 7.581,27.438 l 5.37,4.423 3.837,8.338 v 6.263 l -4.063,4.162 -9.374,5.474 -3.351,4.184 3.351,6.414 5.764,7.665 -1.533,6.3 -3.151,4.526 -42.144,47.1 -0.581,1.6 v 1.913 l 1.285,0.655 2.116,-0.655 67.459,-43.011 c 0.557,0.7 53.836,25.716 77.22,34.883 6.566,2.574 7.387,0.289 7.593,0 0.313,-0.438 0.334,-3.453 -5.165,-7.955 -9.744,-7.977 -28.43,-19.742 -28.548,-20.45 l -28.521,-24.91 c 0,0 -1.986,-2.347 0,-3.43 1.986,-1.083 5.235,-5.054 8.123,-6.137 2.888,-1.083 13.9,-4.513 13.9,-4.513 l 2.166,-7.4 c 0,0 -7.762,-13 -8.123,-14.08 -0.361,-1.08 -8.573,-6.217 -9.115,-6.939 -0.542,-0.722 -4.693,-4.513 -4.874,-5.776 -0.181,-1.263 0.9,-3.249 1.625,-4.513 0.725,-1.264 6.679,-3.43 6.679,-3.43 l 81.049,-38.358 28.882,-16.426 11.282,-9.612 16.607,-17.148 12.636,-18.232 9.026,-22.564 c 0,0 2.663,-11.643 3.385,-12.906 0.722,-1.263 4.152,-44.225 4.152,-44.225 l -1.218,-28.069 -6.319,-28.25 c 0,0 -7.22,-17.6 -9.026,-20.307 -1.806,-2.707 -16.967,-19.315 -16.967,-19.315 l -15.991,-13.584 -13.629,-8.525 -9.186,-4.272 -19.653,-5.02 c 0,0 -22.456,-2.563 -23.178,-2.563 -0.722,0 -26.765,-1.5 -30.014,-1.5 -3.249,0 -29.691,1.118 -35.648,2.562 -5.957,1.444 -29.243,5.054 -29.243,5.054 l -19.128,5.51 -17.335,8.75 -19.16,11.266 -15.674,13.65 -14.53,17.239 -6.679,9.928 -0.993,9.115 0.993,20.52 11.183,36.748 36.1,92.818 3.823,2.557 5.067,0.376 12.048,-1.489 10.921,-5.271 c 11.45876,-7.29201 13.10225,-6.63372 16.517,-18.729 -10.62028,-44.16298 -42.4351,-77.27386 -48.691,-114.038 0.17004,-3.02863 0.95248,-5.99133 2.3,-8.709 1.7772,-2.90426 4.071,-5.45869 6.768,-7.537 59.63333,-33.04436 152.71168,-47.02912 188.41,13.492 9.85998,27.56571 7.22539,46.25749 3.52,74.19 -23.1547,50.53605 -58.3937,69.30228 -107.128,90.393 l -41.337,14.125 z"
       data-name="drober logo"
       id="drober_logo-2" />
  </g>
</svg>
